HIERARCHY
ROOT Hips
{
  OFFSET 0 0 0
  CHANNELS 6 Xposition Yposition Zposition Zrotation Yrotation Xrotation
  JOINT LeftThigh
  {
    OFFSET 8.759831 0 -6.164326
    CHANNELS 3 Zrotation Yrotation Xrotation
    JOINT LeftLeg
    {
      OFFSET 0 0 -44.123596
      CHANNELS 3 Zrotation Yrotation Xrotation
      JOINT LeftFoot
      {
        OFFSET 0 0 -40.997191
        CHANNELS 3 Zrotation Yrotation Xrotation
        End Site
        {
          OFFSET 0 -13.883989 -5.217556
        }
      }
    }
  }
  JOINT RightThigh
  {
    OFFSET -8.759831 0 -6.164326
    CHANNELS 3 Zrotation Yrotation Xrotation
    JOINT RightLeg
    {
      OFFSET 0 0 -44.123596
      CHANNELS 3 Zrotation Yrotation Xrotation
      JOINT RightFoot
      {
        OFFSET 0 0 -40.997191
        CHANNELS 3 Zrotation Yrotation Xrotation
        End Site
        {
          OFFSET 0 -13.883989 -5.217556
        }
      }
    }
  }
  JOINT SpineLow
  {
    OFFSET 0 0 4.91573
    CHANNELS 3 Zrotation Yrotation Xrotation
    JOINT SpineMid
    {
      OFFSET 0 0 13.436657
      CHANNELS 3 Zrotation Yrotation Xrotation
      JOINT Chest
      {
        OFFSET 0 0 13.436657
        CHANNELS 3 Zrotation Yrotation Xrotation
        JOINT LeftShoulder
        {
          OFFSET 7.865169 1.474719 9.831461
          CHANNELS 3 Zrotation Yrotation Xrotation
          JOINT LeftArm
          {
            OFFSET 9.536517 0 4.424157
            CHANNELS 3 Zrotation Yrotation Xrotation
            JOINT LeftForearm
            {
              OFFSET 0 0 26.845787
              CHANNELS 3 Zrotation Yrotation Xrotation
              JOINT LeftHand
              {
                OFFSET 0 0 26.247051
                CHANNELS 3 Zrotation Yrotation Xrotation
              }
            }
          }
        }
        JOINT RightShoulder
        {
          OFFSET -7.865169 1.474719 9.831461
          CHANNELS 3 Zrotation Yrotation Xrotation
          JOINT RightArm
          {
            OFFSET -9.536517 0 4.424157
            CHANNELS 3 Zrotation Yrotation Xrotation
            JOINT RightForearm
            {
              OFFSET 0 0 -26.845787
              CHANNELS 3 Zrotation Yrotation Xrotation
              JOINT RightHand
              {
                OFFSET 0 0 -26.247051
                CHANNELS 3 Zrotation Yrotation Xrotation
              }
            }
          }
        }
        JOINT Neck
        {
          OFFSET 0 0 15.730337
          CHANNELS 3 Zrotation Yrotation Xrotation
          JOINT Head
          {
            OFFSET 0 0 11.797753
            CHANNELS 3 Zrotation Yrotation Xrotation
            End Site
            {
              OFFSET 0 0 7.747191
            }
          }
        }
      }
    }
  }
}
MOTION
Frames: 8
Frame Time: 0.01
-45.543262  88.14933  -156.21199  -175.15502  -72.434897  71.437597  16.862551  -35.90406  -27.006632  32.702965  1.839603  42.692703  -4.174527  12.860957  22.648494  -13.630734  23.640286  -9.736281  -7.373829  -11.514425  53.192607  7.112466  -0.725632  -20.850373  4.439225  -0.370588  -0.900415  12.146665  -0.844008  -2.519666  12.146665  -0.844008  -2.519666  -6.176552  0.738111  6.929694  148.433927  77.212397  -149.127596  -58.599671  -16.389386  98.46049  35.184407  -18.226553  -41.583285  25.644118  -21.681663  8.833076  19.77996  67.94545  -37.747919  3.147481  -4.443555  -109.738564  112.791707  -19.781549  22.126698  10.534865  -1.901482  2.573943  7.908597  -1.382256  1.963765  
-45.77504  87.934341  -156.045959  -174.65551  -73.193985  71.132163  17.838851  -35.59952  -27.797603  32.162886  2.109397  43.008326  -4.62124  12.858229  22.496245  -13.688004  23.771362  -9.750956  -7.734539  -11.136284  53.623429  7.248398  -0.804987  -21.195212  4.527692  -0.277874  -1.013676  12.385432  -0.567046  -2.811592  12.385431  -0.567046  -2.811592  -7.125422  0.859777  7.548698  158.141483  76.446833  -142.80074  -58.938562  -23.892634  97.019812  37.554031  -16.361317  -46.397495  25.041476  -22.51431  9.064803  15.843564  66.9862  -40.812892  4.708168  -9.108851  -110.684997  114.431381  -15.374699  25.654843  10.244106  -2.252823  2.704048  7.692235  -1.644878  2.066247  
-45.960163  87.734634  -155.919891  -173.721086  -74.062153  70.287299  18.242798  -35.573199  -28.39699  32.046921  2.289676  43.406544  -5.478446  12.791315  22.289903  -13.916117  23.915309  -9.578567  -8.150978  -10.822833  53.955183  7.321727  -1.053587  -21.44616  4.515409  -0.247887  -1.084482  12.350884  -0.472753  -2.998677  12.350884  -0.472753  -2.998678  -7.332514  1.3431  8.174465  165.74035  75.468119  -137.689685  -57.88325  -30.41713  95.047292  38.932768  -15.362382  -49.761785  24.740349  -23.080954  9.21412  12.861391  65.816655  -42.731837  6.517095  -14.19663  -111.641461  116.062734  -10.293654  29.30775  10.193124  -2.432989  2.835238  7.655177  -1.778087  2.167429  
-46.259174  87.559486  -155.738937  -172.935623  -74.803674  69.588871  19.168934  -35.42853  -28.992501  31.898345  2.475996  43.68191  -6.34966  12.592474  22.138276  -14.052746  24.078512  -9.349541  -8.342801  -10.602112  54.145919  7.377094  -1.247713  -21.694374  4.513836  -0.231853  -1.157219  12.346122  -0.415628  -3.1937  12.346122  -0.415628  -3.193699  -7.595287  1.900487  8.96765  171.61207  74.229522  -133.840659  -55.394979  -34.959866  92.346371  40.559277  -15.137184  -51.923398  24.273774  -23.618654  9.379527  10.803997  64.438569  -43.576325  8.602132  -19.530471  -112.531341  117.63415  -4.621834  32.688393  10.177672  -2.592314  2.995487  7.644876  -1.895031  2.290186  
-46.455719  87.406548  -155.602142  -171.880033  -75.600078  68.603179  19.167035  -35.591814  -29.391282  32.210936  2.638367  44.137769  -7.186214  12.394115  21.951138  -14.35176  24.247603  -9.124454  -8.590113  -10.477639  54.292898  7.365784  -1.490179  -21.846836  4.465974  -0.244386  -1.204981  12.21616  -0.443258  -3.325869  12.21616  -0.443258  -3.32587  -7.344  2.592741  9.721888  175.416948  73.09083  -131.442383  -52.017812  -37.343818  89.078149  42.445699  -15.419083  -52.785147  23.950147  -23.94489  9.533544  9.424749  62.918284  -43.555272  10.927706  -24.75736  -113.307644  118.930559  1.45439  35.628238  10.304279  -2.64221  3.096383  7.740462  -1.930163  2.367255  
-46.69883  87.278381  -155.416245  -170.855226  -76.335537  67.667119  19.19068  -35.727317  -29.764839  32.537241  2.829181  44.55887  -7.639051  12.138186  21.852085  -14.596794  24.403517  -8.886598  -8.688381  -10.401164  54.326428  7.335245  -1.716985  -21.96609  4.392648  -0.299084  -1.226611  12.018788  -0.591943  -3.394401  12.018789  -0.591943  -3.394401  -6.226484  3.561804  10.169259  176.324198  72.364108  -131.250165  -48.554987  -37.996619  85.896959  44.243645  -16.029195  -52.641773  23.766333  -23.88911  9.853016  8.679988  61.372072  -42.8188  13.355686  -29.386348  -113.927197  119.815114  7.735693  37.999216  10.572327  -2.520559  3.14157  7.941171  -1.836783  2.400282  
-46.885792  87.142807  -155.27977  -169.595448  -77.094325  66.503719  18.938039  -35.91742  -30.083819  32.812586  3.10512  45.016722  -8.122715  11.901704  21.637528  -14.95897  24.53586  -8.705947  -8.849663  -10.277108  54.417063  7.348676  -2.000868  -22.060105  4.305518  -0.34519  -1.225084  11.783163  -0.722251  -3.397904  11.783164  -0.722251  -3.397903  -5.475067  4.329635  10.544554  176.503569  72.026575  -132.126849  -45.754388  -37.342018  83.292818  45.763968  -16.911844  -52.062039  23.650437  -23.671463  10.301659  8.496581  60.106677  -41.648056  15.392852  -33.037618  -114.145994  120.137403  13.815539  39.952504  10.924417  -2.358815  3.086903  8.204317  -1.714634  2.357935  
-47.062126  86.981804  -155.181915  -167.663275  -77.954663  64.775787  18.694245  -36.040245  -30.534168  33.067656  3.348353  45.386929  -8.403454  11.58662  21.510559  -15.423972  24.569605  -8.593002  -9.074861  -10.142567  54.569365  7.319533  -2.297923  -22.186416  4.205137  -0.363281  -1.205498  11.509651  -0.780129  -3.34685  11.50965  -0.780129  -3.34685  -4.752557  4.791127  10.538113  175.021627  72.072788  -134.48329  -43.770905  -35.919949  81.400467  47.329679  -17.944431  -51.569456  23.594116  -23.341565  10.812667  8.670878  59.474659  -40.477986  16.355416  -35.659242  -113.470275  119.783764  19.334034  41.998261  11.273169  -2.19935  2.888413  8.464456  -1.596918  2.207527  
